<?xml version="1.0" encoding="utf-8"?>
<!-- Generator: Adobe Illustrator 22.0.1, SVG Export Plug-In . SVG Version: 6.00 Build 0)  -->
<svg version="1.1" id="Lager_1" xmlns="http://www.w3.org/2000/svg" xmlns:xlink="http://www.w3.org/1999/xlink" x="0px" y="0px"
	 viewBox="0 0 375 82" style="enable-background:new 0 0 375 82;" xml:space="preserve">
<def>
<style type="text/css">
		
 @import url(http://fonts.googleapis.com/css?family=Indie+Flower);


	.st0{fill:rgba(0,0,0, .7);stroke:#000000;stroke-miterlimit:10;}
	.st1{font-family:'IndieFlower';}
	.st2{font-size:53.2481px;}
	.st3{fill:none;stroke:#000000;stroke-miterlimit:10;}



</style>
</def>


<path class="st0" d="M91.2,38.6c-1.1,0.6-2.2,1.1-3.2,1.5c-2.3,0.8-4.4,1.1-6.3,1c-0.4,0-0.8,0-1.1-0.1c-6.9,2.1-11.8-0.9-12.9-1.6
	C58.1,44.5,51,39,51,39c-7.5,4-13.5,1.5-15.7,0.3c-0.4-0.2-0.6-0.4-0.8-0.5c-0.4,0.2-0.7,0.4-1.1,0.5c-0.1,0.1-0.3,0.1-0.4,0.2
	c-0.4,0.2-0.8,0.3-1.2,0.5c-0.2,0.1-0.4,0.2-0.6,0.2c-3.1,1-5.9,0.9-8.1,0.5c-1.3-0.3-2.4-0.7-3.2-1.1c-0.7-0.3-4.1-2.5-4.9-3.6
	c-1.3-1.9-1.8-4.3-1-6.5c0.7-2.1,2.5-3.8,4.6-4.6c0,0.1,0.1,0.2,0.1,0.2c1.3,2.1,4.7,3.5,7.6,3.3c0.6-0.1,1.1-0.2,1.6-0.4
	c1.8,2,5.3,2.9,7.8,2.2c0.8-0.2,1.3-0.6,1.7-1c2.2,1.2,4.9,1.4,6.7,0.3c0.7-0.4,1.2-1,1.4-1.7c1.9,0.3,3.7,0,4.6-1.1
	c0.9-1,0.9-2.3,0.2-3.5c1.6,0.1,2.9-0.5,3.3-1.7c0.3-0.9,0.1-2-0.7-3.1c1.5-0.3,2.5-1.2,2.6-2.6c0.1-1.1-0.4-2.2-1.3-3.2
	c-0.2-0.2-0.3-0.3-0.5-0.5c0.6-0.2,1.3-0.4,1.9-0.5c1-0.1,2.1,0,3.1,0.3c1.5,0.5,2.7,1.4,3.6,2.6c0.8-0.8,1.7-1.4,2.8-1.7
	c2.1-0.7,4.5-0.4,6.3,0.8c1.7-0.8,3.6-0.9,5.4-0.3c1.8,0.6,3.2,1.9,4.1,3.5c1.1-0.1,2.1,0,3.2,0.3c3.1,1,5.2,4,5.1,7.3
	c2.9,0.4,5.3,2.3,6.2,5C96.9,33.1,91.2,38.6,91.2,38.6z"/>
<path class="st0" d="M87.2,39.3c-5.4,7.2-12.3,18.2-14,28.9c-0.3,2.1-2.6,3.6-5.3,3.6H41.3c-2.7,0-4.9-1.5-5.3-3.6
	c-1.6-10.5-8.3-21.2-13.7-28.4c2.2,0.5,4.9,0.5,8.1-0.5c0.2-0.1,0.4-0.1,0.6-0.2c0.4-0.1,0.8-0.3,1.2-0.5c0.1-0.1,0.3-0.1,0.4-0.2
	c0.3-0.2,0.7-0.3,1.1-0.5c0.2,0.1,0.4,0.3,0.8,0.5c2.2,1.3,8.1,3.7,15.7-0.3c0,0,7.1,5.5,16.7,0.4c1.1,0.7,6.1,3.7,12.9,1.6
	c0.4,0,0.7,0.1,1.1,0.1C82.8,40.4,84.9,40.2,87.2,39.3z"/>
<text transform="matrix(1.337 0 0 1 108.6304 54.7471)" class="st0 st1 st2">sprallig</text>
<ellipse class="st3" cx="54.8" cy="41.6" rx="50.8" ry="35.6"/>
</svg>
